<svg xmlns="http://www.w3.org/2000/svg" xmlns:xlink="http://www.w3.org/1999/xlink" width="1080" zoomAndPan="magnify" viewBox="0 0 810 809.999993" height="1080" preserveAspectRatio="xMidYMid meet" version="1.0"><path fill="#5c8dbc" d="M 547.90625 338.960938 C 547.90625 333.566406 546.746094 328.800781 544.410156 324.707031 C 542.117188 320.683594 538.6875 317.3125 534.082031 314.648438 C 496.046875 292.734375 457.988281 270.890625 419.964844 248.957031 C 409.71875 243.042969 399.78125 243.261719 389.609375 249.257812 C 374.476562 258.179688 298.6875 301.566406 276.097656 314.636719 C 266.804688 320.015625 262.277344 328.25 262.277344 338.949219 C 262.261719 383.019531 262.277344 427.082031 262.261719 471.152344 C 262.265625 476.425781 263.367188 481.09375 265.601562 485.125 C 267.894531 489.269531 271.378906 492.742188 276.089844 495.464844 C 298.675781 508.535156 374.464844 551.914062 389.601562 560.835938 C 399.785156 566.84375 409.722656 567.058594 419.96875 561.136719 C 457.992188 539.203125 496.0625 517.355469 534.097656 495.457031 C 538.8125 492.730469 542.289062 489.257812 544.589844 485.113281 C 546.816406 481.09375 547.921875 476.414062 547.921875 471.128906 C 547.921875 471.128906 547.921875 383.03125 547.910156 338.960938 " fill-opacity="1" fill-rule="nonzero"/><path fill="#1a4674" d="M 405.527344 404.621094 L 265.601562 485.125 C 267.894531 489.265625 271.378906 492.738281 276.089844 495.464844 C 298.675781 508.53125 374.464844 551.910156 389.601562 560.835938 C 399.785156 566.84375 409.722656 567.054688 419.96875 561.136719 C 457.992188 539.203125 496.0625 517.355469 534.097656 495.453125 C 538.8125 492.730469 542.289062 489.253906 544.589844 485.113281 L 405.53125 404.621094 " fill-opacity="1" fill-rule="nonzero"/><path fill="#1a4674" d="M 364.082031 428.464844 C 372.226562 442.671875 387.53125 452.253906 405.089844 452.253906 C 422.761719 452.253906 438.152344 442.546875 446.253906 428.195312 L 405.527344 404.621094 L 364.082031 428.464844 " fill-opacity="1" fill-rule="nonzero"/><path fill="#1b598e" d="M 547.90625 338.960938 C 547.90625 333.566406 546.746094 328.800781 544.410156 324.707031 L 405.527344 404.621094 L 544.585938 485.113281 C 546.8125 481.089844 547.917969 476.410156 547.917969 471.128906 C 547.917969 471.128906 547.917969 383.03125 547.90625 338.960938 " fill-opacity="1" fill-rule="nonzero"/><path fill="#ffffff" d="M 540.261719 410.371094 L 529.398438 410.371094 L 529.398438 421.226562 L 518.523438 421.226562 L 518.523438 410.371094 L 507.660156 410.371094 L 507.660156 399.515625 L 518.523438 399.515625 L 518.523438 388.660156 L 529.398438 388.660156 L 529.398438 399.515625 L 540.261719 399.515625 L 540.261719 410.371094 " fill-opacity="1" fill-rule="nonzero"/><path fill="#ffffff" d="M 500.605469 410.371094 L 489.742188 410.371094 L 489.742188 421.226562 L 478.878906 421.226562 L 478.878906 410.371094 L 468.015625 410.371094 L 468.015625 399.515625 L 478.878906 399.515625 L 478.878906 388.660156 L 489.742188 388.660156 L 489.742188 399.515625 L 500.605469 399.515625 L 500.605469 410.371094 " fill-opacity="1" fill-rule="nonzero"/><path fill="#ffffff" d="M 446.253906 428.195312 C 438.152344 442.546875 422.761719 452.253906 405.089844 452.253906 C 387.53125 452.253906 372.226562 442.671875 364.082031 428.464844 C 360.128906 421.5625 357.851562 413.578125 357.851562 405.042969 C 357.851562 378.976562 379.003906 357.847656 405.089844 357.847656 C 422.535156 357.847656 437.757812 367.304688 445.941406 381.367188 L 487.226562 357.613281 C 470.820312 329.300781 440.183594 310.257812 405.089844 310.257812 C 352.699219 310.257812 310.226562 352.695312 310.226562 405.042969 C 310.226562 422.222656 314.800781 438.328125 322.792969 452.21875 C 339.160156 480.679688 369.886719 499.84375 405.089844 499.84375 C 440.363281 499.84375 471.132812 480.601562 487.472656 452.0625 L 446.253906 428.195312 " fill-opacity="1" fill-rule="nonzero"/></svg>