<svg xmlns="http://www.w3.org/2000/svg" xmlns:xlink="http://www.w3.org/1999/xlink" width="1080" zoomAndPan="magnify" viewBox="0 0 810 809.999993" height="1080" preserveAspectRatio="xMidYMid meet" version="1.0"><path fill="#3ae1ee" d="M 509.171875 354.378906 C 505.824219 353.222656 502.351562 352.132812 498.765625 351.097656 C 499.359375 348.699219 499.902344 346.328125 500.382812 344 C 508.25 305.753906 503.109375 274.945312 485.515625 264.800781 C 468.640625 255.074219 441.058594 265.214844 413.195312 289.460938 C 410.519531 291.792969 407.828125 294.257812 405.152344 296.847656 C 403.359375 295.136719 401.578125 293.480469 399.796875 291.898438 C 370.597656 265.976562 341.328125 255.046875 323.753906 265.222656 C 306.902344 274.976562 301.914062 303.941406 309.003906 340.1875 C 309.691406 343.6875 310.492188 347.265625 311.394531 350.898438 C 307.253906 352.074219 303.253906 353.328125 299.429688 354.660156 C 265.199219 366.59375 243.335938 385.300781 243.335938 404.703125 C 243.335938 424.734375 266.804688 444.84375 302.460938 457.03125 C 305.273438 457.988281 308.191406 458.898438 311.199219 459.757812 C 310.222656 463.6875 309.375 467.539062 308.664062 471.300781 C 301.898438 506.917969 307.179688 535.195312 323.988281 544.882812 C 341.347656 554.898438 370.480469 544.605469 398.847656 519.8125 C 401.097656 517.855469 403.34375 515.773438 405.59375 513.601562 C 408.523438 516.402344 411.441406 519.070312 414.332031 521.570312 C 441.816406 545.210938 468.957031 554.761719 485.742188 545.046875 C 503.085938 535.007812 508.730469 504.621094 501.40625 467.664062 C 500.847656 464.835938 500.191406 461.957031 499.472656 459.027344 C 501.519531 458.417969 503.527344 457.789062 505.484375 457.144531 C 542.554688 444.855469 566.664062 425.011719 566.664062 404.703125 C 566.664062 385.230469 544.09375 366.398438 509.171875 354.378906 Z M 501.140625 444.035156 C 499.371094 444.613281 497.550781 445.183594 495.707031 445.726562 C 491.617188 432.78125 486.097656 419 479.328125 404.765625 C 485.78125 390.875 491.085938 377.277344 495.0625 364.40625 C 498.375 365.363281 501.582031 366.375 504.675781 367.4375 C 534.597656 377.738281 552.847656 392.96875 552.847656 404.703125 C 552.847656 417.195312 533.144531 433.425781 501.140625 444.035156 Z M 487.851562 470.34375 C 491.097656 486.683594 491.554688 501.460938 489.40625 513.019531 C 487.488281 523.402344 483.609375 530.320312 478.820312 533.085938 C 468.628906 538.984375 446.84375 531.320312 423.351562 511.097656 C 420.648438 508.773438 417.933594 506.300781 415.21875 503.683594 C 424.324219 493.71875 433.429688 482.136719 442.320312 469.269531 C 457.945312 467.890625 472.710938 465.617188 486.109375 462.523438 C 486.765625 465.1875 487.347656 467.789062 487.851562 470.34375 Z M 353.570312 532.066406 C 343.617188 535.589844 335.6875 535.691406 330.894531 532.921875 C 320.695312 527.039062 316.453125 504.328125 322.238281 473.878906 C 322.902344 470.390625 323.6875 466.804688 324.597656 463.144531 C 337.84375 466.074219 352.503906 468.183594 368.167969 469.445312 C 377.117188 482.039062 386.488281 493.605469 395.925781 503.734375 C 393.867188 505.730469 391.808594 507.625 389.761719 509.40625 C 377.21875 520.382812 364.648438 528.160156 353.570312 532.066406 Z M 306.933594 443.957031 C 291.164062 438.566406 278.144531 431.566406 269.222656 423.914062 C 261.203125 417.054688 257.152344 410.234375 257.152344 404.703125 C 257.152344 392.933594 274.707031 377.910156 303.980469 367.703125 C 307.53125 366.464844 311.25 365.296875 315.109375 364.203125 C 319.15625 377.363281 324.464844 391.125 330.867188 405.03125 C 324.378906 419.152344 318.996094 433.132812 314.910156 446.457031 C 312.160156 445.664062 309.496094 444.828125 306.933594 443.957031 Z M 322.566406 337.535156 C 316.488281 306.480469 320.523438 283.054688 330.679688 277.175781 C 341.496094 270.914062 365.414062 279.84375 390.621094 302.226562 C 392.234375 303.660156 393.851562 305.15625 395.480469 306.707031 C 386.085938 316.792969 376.800781 328.277344 367.933594 340.792969 C 352.726562 342.199219 338.171875 344.464844 324.789062 347.496094 C 323.945312 344.113281 323.203125 340.785156 322.566406 337.535156 Z M 462.027344 371.972656 C 458.832031 366.449219 455.546875 361.050781 452.199219 355.804688 C 462.519531 357.109375 472.394531 358.839844 481.679688 360.957031 C 478.898438 369.886719 475.425781 379.226562 471.332031 388.804688 C 468.402344 383.230469 465.296875 377.617188 462.027344 371.972656 Z M 405.152344 316.578125 C 411.53125 323.480469 417.910156 331.183594 424.1875 339.546875 C 417.859375 339.246094 411.457031 339.09375 405 339.09375 C 398.609375 339.09375 392.257812 339.242188 385.96875 339.539062 C 392.246094 331.253906 398.6875 323.558594 405.152344 316.578125 Z M 347.917969 372.070312 C 344.722656 377.609375 341.675781 383.195312 338.789062 388.789062 C 334.765625 379.25 331.324219 369.867188 328.515625 360.8125 C 337.738281 358.746094 347.578125 357.058594 357.828125 355.777344 C 354.433594 361.074219 351.121094 366.511719 347.917969 372.066406 Z M 358.121094 454.605469 C 347.53125 453.429688 337.546875 451.828125 328.324219 449.816406 C 331.179688 440.597656 334.695312 431.023438 338.804688 421.273438 C 341.699219 426.871094 344.753906 432.453125 347.96875 438.007812 L 347.972656 438.007812 C 351.246094 443.667969 354.640625 449.199219 358.121094 454.605469 Z M 405.53125 493.796875 C 398.988281 486.734375 392.460938 478.917969 386.082031 470.519531 C 392.269531 470.757812 398.585938 470.886719 405 470.886719 C 411.59375 470.886719 418.109375 470.734375 424.515625 470.457031 C 418.226562 479.007812 411.859375 486.835938 405.53125 493.796875 Z M 471.460938 420.78125 C 475.78125 430.632812 479.429688 440.15625 482.320312 449.222656 C 472.949219 451.359375 462.820312 453.078125 452.160156 454.363281 C 455.519531 449.046875 458.832031 443.554688 462.089844 437.90625 C 465.386719 432.199219 468.503906 426.476562 471.460938 420.78125 Z M 450.117188 431.011719 C 445.0625 439.777344 439.871094 448.136719 434.605469 456.03125 C 425.019531 456.714844 415.105469 457.066406 405 457.066406 C 394.933594 457.066406 385.148438 456.765625 375.726562 456.144531 C 370.242188 448.152344 364.945312 439.765625 359.921875 431.089844 L 359.925781 431.089844 C 354.914062 422.4375 350.304688 413.710938 346.128906 405.03125 C 350.304688 396.34375 354.902344 387.601562 359.882812 378.96875 C 364.875 370.3125 370.128906 361.960938 375.5625 354.011719 C 385.171875 353.285156 395.035156 352.90625 405 352.90625 C 415.015625 352.90625 424.878906 353.289062 434.492188 354.019531 C 439.847656 361.914062 445.0625 370.234375 450.078125 378.894531 C 455.140625 387.652344 459.804688 396.332031 464.007812 404.84375 C 459.816406 413.496094 455.167969 422.257812 450.117188 431.011719 Z M 478.609375 276.761719 C 489.445312 283.007812 493.652344 308.1875 486.84375 341.207031 C 486.414062 343.316406 485.921875 345.460938 485.390625 347.636719 C 471.976562 344.539062 457.414062 342.238281 442.171875 340.804688 C 433.28125 328.15625 424.074219 316.652344 414.828125 306.695312 C 417.316406 304.304688 419.804688 302.027344 422.265625 299.875 C 446.136719 279.101562 468.453125 270.902344 478.609375 276.761719 Z M 405 375.824219 C 420.941406 375.824219 433.875 388.75 433.875 404.699219 C 433.875 420.640625 420.941406 433.574219 405 433.574219 C 389.0625 433.574219 376.128906 420.640625 376.128906 404.699219 C 376.128906 388.75 389.0625 375.824219 405 375.824219 Z M 405 375.824219 " fill-opacity="1" fill-rule="nonzero"/></svg>