<svg xmlns="http://www.w3.org/2000/svg" xmlns:xlink="http://www.w3.org/1999/xlink" width="1080" zoomAndPan="magnify" viewBox="0 0 810 809.999993" height="1080" preserveAspectRatio="xMidYMid meet" version="1.0"><defs><clipPath id="df663c6b9f"><path d="M 318 199.976562 L 407 199.976562 L 407 543 L 318 543 Z M 318 199.976562 " clip-rule="nonzero"/></clipPath><clipPath id="59dcff3aa4"><path d="M 398 493 L 421 493 L 421 589.976562 L 398 589.976562 Z M 398 493 " clip-rule="nonzero"/></clipPath></defs><path fill="#599636" d="M 404.414062 201.039062 L 414.824219 220.585938 C 417.164062 224.195312 419.699219 227.386719 422.6875 230.363281 C 431.402344 239.074219 439.683594 248.203125 447.117188 257.976562 C 464.757812 281.132812 476.65625 306.851562 485.152344 334.664062 C 490.25 351.652344 493.015625 369.078125 493.222656 386.703125 C 494.078125 439.390625 476.011719 484.628906 439.585938 522.226562 C 433.636719 528.175781 427.269531 533.683594 420.445312 538.582031 C 416.835938 538.582031 415.128906 535.816406 413.640625 533.269531 C 410.875 528.601562 409.179688 523.277344 408.328125 517.972656 C 407.046875 511.601562 406.207031 505.226562 406.621094 498.644531 L 406.621094 495.671875 C 406.328125 495.039062 403.144531 202.539062 404.414062 201.039062 Z M 404.414062 201.039062 " fill-opacity="1" fill-rule="nonzero"/><g clip-path="url(#df663c6b9f)"><path fill="#6cac48" d="M 404.414062 200.390625 C 403.988281 199.539062 403.558594 200.183594 403.132812 200.601562 C 403.339844 204.867188 401.851562 208.667969 399.523438 212.300781 C 396.964844 215.90625 393.574219 218.671875 390.175781 221.648438 C 371.277344 238.003906 356.40625 257.757812 344.496094 279.855469 C 328.644531 309.59375 320.476562 341.460938 318.160156 375.015625 C 317.101562 387.117188 321.988281 429.820312 325.804688 442.144531 C 336.214844 474.855469 354.917969 502.265625 379.140625 526.054688 C 385.089844 531.78125 391.453125 537.097656 398.039062 542.203125 C 399.953125 542.203125 400.160156 540.496094 400.597656 539.230469 C 401.4375 536.511719 402.074219 533.75 402.511719 530.941406 L 406.777344 499.082031 Z M 404.414062 200.390625 " fill-opacity="1" fill-rule="nonzero"/></g><g clip-path="url(#59dcff3aa4)"><path fill="#c2bfbf" d="M 414.824219 551.527344 C 415.25 546.652344 417.589844 542.605469 420.140625 538.570312 C 417.578125 537.511719 415.675781 535.402344 414.191406 533.050781 C 412.910156 530.929688 411.851562 528.382812 411.019531 526.042969 C 408.046875 517.121094 407.414062 507.761719 406.558594 498.644531 L 406.558594 493.125 C 405.5 493.976562 405.277344 501.191406 405.277344 502.265625 C 404.65625 511.910156 403.382812 521.46875 401.449219 530.941406 C 400.816406 534.769531 400.390625 538.582031 398.039062 541.984375 C 398.039062 542.410156 398.039062 542.835938 398.246094 543.46875 C 402.074219 554.730469 403.121094 566.199219 403.765625 577.886719 L 403.765625 582.152344 C 403.765625 587.25 403.558594 586.175781 407.789062 587.882812 C 409.496094 588.515625 411.398438 588.734375 413.105469 590.003906 C 414.386719 590.003906 414.59375 588.941406 414.59375 588.089844 L 413.957031 581.082031 L 413.957031 561.53125 C 413.75 558.121094 414.386719 554.730469 414.8125 551.539062 Z M 414.824219 551.527344 " fill-opacity="1" fill-rule="nonzero"/></g></svg>