<svg xmlns="http://www.w3.org/2000/svg" xmlns:xlink="http://www.w3.org/1999/xlink" width="1080" zoomAndPan="magnify" viewBox="0 0 810 809.999993" height="1080" preserveAspectRatio="xMidYMid meet" version="1.0"><defs><clipPath id="0aea6cbdef"><path d="M 243 220.746094 L 567 220.746094 L 567 544 L 243 544 Z M 243 220.746094 " clip-rule="nonzero"/></clipPath><clipPath id="a51e55d760"><path d="M 243 220.746094 L 406 220.746094 L 406 544 L 243 544 Z M 243 220.746094 " clip-rule="nonzero"/></clipPath></defs><g clip-path="url(#0aea6cbdef)"><path fill="#eb9717" d="M 255.054688 219.992188 C 251.8125 219.992188 248.726562 221.386719 246.582031 223.816406 C 244.4375 226.246094 243.4375 229.480469 243.839844 232.699219 L 273.980469 473.8125 C 274.449219 477.566406 276.761719 480.832031 280.140625 482.519531 L 400.699219 542.800781 C 403.878906 544.390625 407.625 544.390625 410.808594 542.800781 L 531.367188 482.519531 C 534.746094 480.832031 537.058594 477.566406 537.527344 473.8125 L 567.667969 232.699219 C 568.070312 229.480469 567.070312 226.246094 564.925781 223.816406 C 562.777344 221.386719 559.691406 219.992188 556.449219 219.992188 Z M 255.054688 219.992188 " fill-opacity="1" fill-rule="nonzero"/></g><g clip-path="url(#a51e55d760)"><path fill="#eb9717" d="M 405.753906 219.992188 L 405.753906 543.992188 C 404.023438 543.992188 402.289062 543.597656 400.699219 542.800781 L 280.140625 482.519531 C 276.761719 480.832031 274.449219 477.566406 273.980469 473.8125 L 243.839844 232.699219 C 243.4375 229.480469 244.4375 226.246094 246.582031 223.816406 C 248.726562 221.386719 251.8125 219.992188 255.054688 219.992188 Z M 405.753906 219.992188 " fill-opacity="1" fill-rule="evenodd"/></g><path fill="#eceff1" d="M 306.988281 268.882812 C 309.128906 266.539062 312.160156 265.203125 315.335938 265.203125 L 496.171875 265.203125 C 502.414062 265.203125 507.472656 270.261719 507.472656 276.503906 C 507.472656 282.746094 502.414062 287.808594 496.171875 287.808594 L 327.710938 287.808594 L 333.191406 348.085938 L 496.171875 348.085938 C 499.523438 348.085938 502.703125 349.574219 504.847656 352.148438 C 506.996094 354.71875 507.890625 358.113281 507.292969 361.410156 L 492.222656 444.296875 C 491.640625 447.496094 489.707031 450.289062 486.917969 451.964844 L 411.570312 497.171875 C 407.988281 499.320312 403.515625 499.320312 399.9375 497.171875 L 324.589844 451.964844 C 321.496094 450.109375 319.476562 446.890625 319.148438 443.296875 L 304.078125 277.527344 C 303.792969 274.367188 304.847656 271.230469 306.988281 268.882812 Z M 335.246094 370.691406 L 341.140625 435.535156 L 405.753906 474.300781 L 470.898438 435.214844 L 482.628906 370.691406 Z M 335.246094 370.691406 " fill-opacity="1" fill-rule="evenodd"/><path fill="#cfd8dc" d="M 405.753906 287.808594 L 327.710938 287.808594 L 333.191406 348.085938 L 405.753906 348.085938 L 405.753906 370.691406 L 335.246094 370.691406 L 341.140625 435.535156 L 405.753906 474.300781 L 405.753906 498.785156 C 403.738281 498.785156 401.726562 498.246094 399.9375 497.171875 L 324.589844 451.964844 C 321.496094 450.109375 319.476562 446.890625 319.148438 443.296875 L 311.613281 360.414062 L 304.078125 277.527344 C 303.792969 274.367188 304.847656 271.230469 306.988281 268.882812 C 309.128906 266.539062 312.160156 265.203125 315.335938 265.203125 L 405.753906 265.203125 Z M 405.753906 287.808594 " fill-opacity="1" fill-rule="evenodd"/></svg>