<svg xmlns="http://www.w3.org/2000/svg" xmlns:xlink="http://www.w3.org/1999/xlink" width="1080" zoomAndPan="magnify" viewBox="0 0 810 809.999993" height="1080" preserveAspectRatio="xMidYMid meet" version="1.0"><defs><clipPath id="dc914c8736"><path d="M 242.113281 225.496094 L 484 225.496094 L 484 468 L 242.113281 468 Z M 242.113281 225.496094 " clip-rule="nonzero"/></clipPath><clipPath id="05840f36d6"><path d="M 403.875 225.460938 C 321.203125 225.460938 326.363281 261.308594 326.363281 261.308594 L 326.457031 298.449219 L 405.339844 298.449219 L 405.339844 309.601562 L 295.125 309.601562 C 295.125 309.601562 242.226562 303.601562 242.226562 387.011719 C 242.222656 470.425781 288.394531 467.46875 288.394531 467.46875 L 315.949219 467.46875 L 315.949219 428.757812 C 315.949219 428.757812 314.464844 382.585938 361.382812 382.585938 L 439.628906 382.585938 C 439.628906 382.585938 483.578125 383.300781 483.578125 340.105469 L 483.578125 268.683594 C 483.578125 268.683594 490.261719 225.460938 403.875 225.460938 Z M 360.371094 250.433594 C 368.21875 250.433594 374.558594 256.777344 374.558594 264.625 C 374.558594 272.476562 368.21875 278.820312 360.371094 278.820312 C 352.519531 278.820312 346.179688 272.476562 346.179688 264.625 C 346.179688 256.777344 352.519531 250.433594 360.371094 250.433594 Z M 360.371094 250.433594 " clip-rule="nonzero"/></clipPath><linearGradient x1="0.0041683" gradientTransform="matrix(241.475038, 0, 0, 242.022258, 242.224871, 225.459178)" y1="-0.00405735" x2="1.027757" gradientUnits="userSpaceOnUse" y2="1.01158" id="53044f0a09"><stop stop-opacity="1" stop-color="rgb(21.998596%, 49.398804%, 72.198486%)" offset="0"/><stop stop-opacity="1" stop-color="rgb(21.99707%, 49.383545%, 72.171021%)" offset="0.125"/><stop stop-opacity="1" stop-color="rgb(21.986389%, 49.269104%, 71.974182%)" offset="0.140625"/><stop stop-opacity="1" stop-color="rgb(21.966553%, 49.072266%, 71.633911%)" offset="0.15625"/><stop stop-opacity="1" stop-color="rgb(21.948242%, 48.875427%, 71.29364%)" offset="0.171875"/><stop stop-opacity="1" stop-color="rgb(21.928406%, 48.678589%, 70.953369%)" offset="0.1875"/><stop stop-opacity="1" stop-color="rgb(21.910095%, 48.48175%, 70.611572%)" offset="0.203125"/><stop stop-opacity="1" stop-color="rgb(21.890259%, 48.286438%, 70.271301%)" offset="0.21875"/><stop stop-opacity="1" stop-color="rgb(21.870422%, 48.0896%, 69.93103%)" offset="0.234375"/><stop stop-opacity="1" stop-color="rgb(21.852112%, 47.892761%, 69.590759%)" offset="0.25"/><stop stop-opacity="1" stop-color="rgb(21.832275%, 47.695923%, 69.250488%)" offset="0.265625"/><stop stop-opacity="1" stop-color="rgb(21.813965%, 47.499084%, 68.908691%)" offset="0.28125"/><stop stop-opacity="1" stop-color="rgb(21.794128%, 47.302246%, 68.56842%)" offset="0.296875"/><stop stop-opacity="1" stop-color="rgb(21.775818%, 47.105408%, 68.228149%)" offset="0.3125"/><stop stop-opacity="1" stop-color="rgb(21.755981%, 46.908569%, 67.887878%)" offset="0.328125"/><stop stop-opacity="1" stop-color="rgb(21.736145%, 46.711731%, 67.546082%)" offset="0.34375"/><stop stop-opacity="1" stop-color="rgb(21.717834%, 46.514893%, 67.205811%)" offset="0.359375"/><stop stop-opacity="1" stop-color="rgb(21.697998%, 46.31958%, 66.86554%)" offset="0.375"/><stop stop-opacity="1" stop-color="rgb(21.679688%, 46.122742%, 66.525269%)" offset="0.390625"/><stop stop-opacity="1" stop-color="rgb(21.659851%, 45.925903%, 66.184998%)" offset="0.40625"/><stop stop-opacity="1" stop-color="rgb(21.641541%, 45.729065%, 65.843201%)" offset="0.421875"/><stop stop-opacity="1" stop-color="rgb(21.621704%, 45.532227%, 65.50293%)" offset="0.4375"/><stop stop-opacity="1" stop-color="rgb(21.601868%, 45.335388%, 65.162659%)" offset="0.453125"/><stop stop-opacity="1" stop-color="rgb(21.583557%, 45.13855%, 64.822388%)" offset="0.46875"/><stop stop-opacity="1" stop-color="rgb(21.563721%, 44.941711%, 64.482117%)" offset="0.484375"/><stop stop-opacity="1" stop-color="rgb(21.54541%, 44.744873%, 64.14032%)" offset="0.494335"/><stop stop-opacity="1" stop-color="rgb(21.536255%, 44.647217%, 63.970947%)" offset="0.5"/><stop stop-opacity="1" stop-color="rgb(21.525574%, 44.548035%, 63.800049%)" offset="0.505665"/><stop stop-opacity="1" stop-color="rgb(21.516418%, 44.450378%, 63.630676%)" offset="0.515625"/><stop stop-opacity="1" stop-color="rgb(21.505737%, 44.352722%, 63.459778%)" offset="0.53125"/><stop stop-opacity="1" stop-color="rgb(21.487427%, 44.155884%, 63.119507%)" offset="0.546875"/><stop stop-opacity="1" stop-color="rgb(21.46759%, 43.959045%, 62.77771%)" offset="0.5625"/><stop stop-opacity="1" stop-color="rgb(21.44928%, 43.762207%, 62.437439%)" offset="0.578125"/><stop stop-opacity="1" stop-color="rgb(21.429443%, 43.565369%, 62.097168%)" offset="0.59375"/><stop stop-opacity="1" stop-color="rgb(21.411133%, 43.36853%, 61.756897%)" offset="0.609375"/><stop stop-opacity="1" stop-color="rgb(21.391296%, 43.171692%, 61.416626%)" offset="0.625"/><stop stop-opacity="1" stop-color="rgb(21.37146%, 42.974854%, 61.074829%)" offset="0.640625"/><stop stop-opacity="1" stop-color="rgb(21.353149%, 42.778015%, 60.734558%)" offset="0.65625"/><stop stop-opacity="1" stop-color="rgb(21.333313%, 42.582703%, 60.394287%)" offset="0.671875"/><stop stop-opacity="1" stop-color="rgb(21.315002%, 42.385864%, 60.054016%)" offset="0.6875"/><stop stop-opacity="1" stop-color="rgb(21.295166%, 42.189026%, 59.713745%)" offset="0.703125"/><stop stop-opacity="1" stop-color="rgb(21.276855%, 41.992188%, 59.371948%)" offset="0.71875"/><stop stop-opacity="1" stop-color="rgb(21.257019%, 41.795349%, 59.031677%)" offset="0.734375"/><stop stop-opacity="1" stop-color="rgb(21.237183%, 41.598511%, 58.691406%)" offset="0.75"/><stop stop-opacity="1" stop-color="rgb(21.218872%, 41.401672%, 58.351135%)" offset="0.765625"/><stop stop-opacity="1" stop-color="rgb(21.203613%, 41.25061%, 58.09021%)" offset="0.78125"/><stop stop-opacity="1" stop-color="rgb(21.199036%, 41.19873%, 57.998657%)" offset="0.8125"/><stop stop-opacity="1" stop-color="rgb(21.199036%, 41.19873%, 57.998657%)" offset="0.875"/><stop stop-opacity="1" stop-color="rgb(21.199036%, 41.19873%, 57.998657%)" offset="1"/></linearGradient><clipPath id="d803e17bf1"><path d="M 326 307 L 567.613281 307 L 567.613281 549.496094 L 326 549.496094 Z M 326 307 " clip-rule="nonzero"/></clipPath><clipPath id="3630e14500"><path d="M 406.21875 549.40625 C 488.882812 549.40625 483.71875 513.550781 483.71875 513.550781 L 483.632812 476.40625 L 404.742188 476.40625 L 404.742188 465.261719 L 514.960938 465.261719 C 514.960938 465.261719 567.863281 471.253906 567.863281 387.851562 C 567.863281 304.4375 521.691406 307.394531 521.691406 307.394531 L 494.136719 307.394531 L 494.136719 346.101562 C 494.136719 346.101562 495.617188 392.277344 448.707031 392.277344 L 370.453125 392.277344 C 370.453125 392.277344 326.5 391.5625 326.5 434.761719 L 326.5 506.179688 C 326.5 506.179688 319.824219 549.40625 406.21875 549.40625 Z M 449.714844 524.425781 C 441.871094 524.425781 435.523438 518.078125 435.523438 510.234375 C 435.523438 502.378906 441.871094 496.042969 449.714844 496.042969 C 457.566406 496.042969 463.90625 502.378906 463.90625 510.234375 C 463.90625 518.078125 457.566406 524.425781 449.714844 524.425781 Z M 449.714844 524.425781 " clip-rule="nonzero"/></clipPath></defs><g clip-path="url(#dc914c8736)"><g clip-path="url(#05840f36d6)"><path fill="url(#53044f0a09)" d="M 242.222656 225.496094 L 242.222656 470.425781 L 490.261719 470.425781 L 490.261719 225.496094 Z M 242.222656 225.496094 " fill-rule="nonzero"/></g></g><g clip-path="url(#d803e17bf1)"><g clip-path="url(#3630e14500)"><path fill="#ffb500" d="M 319.824219 304.4375 L 319.824219 549.40625 L 567.613281 549.40625 L 567.613281 304.4375 Z M 319.824219 304.4375 " fill-opacity="1" fill-rule="nonzero"/></g></g></svg>